forces
version=1
nRows=39
nColumns=19
inDegrees=yes
endheader
time	ground_force_1_vx	ground_force_1_vy	ground_force_1_vz	ground_force_1_px	ground_force_1_py	ground_force_1_pz	ground_moment_1_mx	ground_moment_1_my	ground_moment_1_mz	ground_force_2_vx	ground_force_2_vy	ground_force_2_vz	ground_force_2_px	ground_force_2_py	ground_force_2_pz	ground_moment_2_mx	ground_moment_2_my	ground_moment_2_mz
0.642500	209.457033	930.218767	-0.677252	1.410662	0.000000	0.648843	-0.049453	0.010037	0.099071	0.000000	0.000000	0.000000	0.000000	0.000000	0.000000	0.000000	0.000000	0.000000
0.643000	209.505261	921.515434	-0.524224	1.410899	0.000000	0.648838	-0.048991	0.009968	0.098297	0.000000	0.000000	0.000000	0.000000	0.000000	0.000000	0.000000	0.000000	0.000000
0.643500	209.508577	912.775976	-0.376459	1.411138	0.000000	0.648836	-0.048528	0.009899	0.097518	0.000000	0.000000	0.000000	0.000000	0.000000	0.000000	0.000000	0.000000	0.000000
0.644000	209.466427	904.001278	-0.233843	1.411377	0.000000	0.648836	-0.048064	0.009830	0.096734	0.000000	0.000000	0.000000	0.000000	0.000000	0.000000	0.000000	0.000000	0.000000
0.644500	209.378292	895.192261	-0.096262	1.411618	0.000000	0.648839	-0.047600	0.009760	0.095944	0.000000	0.000000	0.000000	0.000000	0.000000	0.000000	0.000000	0.000000	0.000000
0.645000	209.243693	886.349884	0.036398	1.411861	0.000000	0.648843	-0.047135	0.009689	0.095149	0.000000	0.000000	0.000000	0.000000	0.000000	0.000000	0.000000	0.000000	0.000000
0.645500	209.062189	877.475148	0.164249	1.412106	0.000000	0.648851	-0.046670	0.009619	0.094349	0.000000	0.000000	0.000000	0.000000	0.000000	0.000000	0.000000	0.000000	0.000000
0.646000	208.833383	868.569097	0.287405	1.412354	0.000000	0.648860	-0.046204	0.009547	0.093544	0.000000	0.000000	0.000000	0.000000	0.000000	0.000000	0.000000	0.000000	0.000000
0.646500	208.556924	859.632817	0.405978	1.412603	0.000000	0.648872	-0.045737	0.009476	0.092734	0.000000	0.000000	0.000000	0.000000	0.000000	0.000000	0.000000	0.000000	0.000000
0.647000	208.232507	850.667444	0.520077	1.412855	0.000000	0.648886	-0.045270	0.009404	0.091919	0.000000	0.000000	0.000000	0.000000	0.000000	0.000000	0.000000	0.000000	0.000000
0.647500	207.859876	841.674159	0.629815	1.413110	0.000000	0.648902	-0.044803	0.009332	0.091100	0.000000	0.000000	0.000000	0.000000	0.000000	0.000000	0.000000	0.000000	0.000000
0.648000	207.438826	832.654192	0.735302	1.413368	0.000000	0.648921	-0.044335	0.009259	0.090276	0.000000	0.000000	0.000000	0.000000	0.000000	0.000000	0.000000	0.000000	0.000000
0.648500	206.969206	823.608827	0.836646	1.413628	0.000000	0.648941	-0.043866	0.009186	0.089449	0.000000	0.000000	0.000000	0.000000	0.000000	0.000000	0.000000	0.000000	0.000000
0.649000	206.450917	814.539398	0.933957	1.413893	0.000000	0.648963	-0.043397	0.009113	0.088616	0.000000	0.000000	0.000000	0.000000	0.000000	0.000000	0.000000	0.000000	0.000000
0.649500	205.883918	805.447292	1.027343	1.414161	0.000000	0.648988	-0.042928	0.009039	0.087780	0.000000	0.000000	0.000000	0.000000	0.000000	0.000000	0.000000	0.000000	0.000000
0.650000	205.268224	796.333952	1.116913	1.414432	0.000000	0.649014	-0.042458	0.008965	0.086940	0.000000	0.000000	0.000000	0.000000	0.000000	0.000000	0.000000	0.000000	0.000000
0.650500	204.603907	787.200875	1.202772	1.414708	0.000000	0.649041	-0.041989	0.008891	0.086096	0.000000	0.000000	0.000000	0.000000	0.000000	0.000000	0.000000	0.000000	0.000000
0.651000	203.891101	778.049616	1.285028	1.414988	0.000000	0.649071	-0.041518	0.008816	0.085249	0.000000	0.000000	0.000000	0.000000	0.000000	0.000000	0.000000	0.000000	0.000000
0.651500	203.129999	768.881784	1.363787	1.415272	0.000000	0.649102	-0.041048	0.008741	0.084398	0.000000	0.000000	0.000000	0.000000	0.000000	0.000000	0.000000	0.000000	0.000000
0.652000	202.320852	759.699048	1.439154	1.415561	0.000000	0.649134	-0.040578	0.008666	0.083544	0.000000	0.000000	0.000000	0.000000	0.000000	0.000000	0.000000	0.000000	0.000000
0.652500	201.463976	750.503132	1.511234	1.415854	0.000000	0.649168	-0.040107	0.008590	0.082687	0.000000	0.000000	0.000000	0.000000	0.000000	0.000000	0.000000	0.000000	0.000000
0.653000	200.559746	741.295819	1.580132	1.416153	0.000000	0.649203	-0.039637	0.008514	0.081827	0.000000	0.000000	0.000000	0.000000	0.000000	0.000000	0.000000	0.000000	0.000000
0.653500	199.608602	732.078947	1.645951	1.416457	0.000000	0.649239	-0.039166	0.008438	0.080964	0.000000	0.000000	0.000000	0.000000	0.000000	0.000000	0.000000	0.000000	0.000000
0.654000	198.611041	722.854415	1.708795	1.416766	0.000000	0.649276	-0.038696	0.008362	0.080099	0.000000	0.000000	0.000000	0.000000	0.000000	0.000000	0.000000	0.000000	0.000000
0.654500	197.567624	713.624174	1.768765	1.417081	0.000000	0.649314	-0.038225	0.008285	0.079231	0.000000	0.000000	0.000000	0.000000	0.000000	0.000000	0.000000	0.000000	0.000000
0.655000	196.478974	704.390234	1.825965	1.417402	0.000000	0.649353	-0.037755	0.008208	0.078361	0.000000	0.000000	0.000000	0.000000	0.000000	0.000000	0.000000	0.000000	0.000000
0.655500	195.345773	695.154656	1.880496	1.417728	0.000000	0.649392	-0.037285	0.008131	0.077490	0.000000	0.000000	0.000000	0.000000	0.000000	0.000000	0.000000	0.000000	0.000000
0.656000	194.168764	685.919559	1.932458	1.418061	0.000000	0.649432	-0.036816	0.008053	0.076616	0.000000	0.000000	0.000000	0.000000	0.000000	0.000000	0.000000	0.000000	0.000000
0.656500	192.948746	676.687110	1.981952	1.418400	0.000000	0.649472	-0.036347	0.007976	0.075741	0.000000	0.000000	0.000000	0.000000	0.000000	0.000000	0.000000	0.000000	0.000000
0.657000	191.686579	667.459528	2.029077	1.418745	0.000000	0.649512	-0.035878	0.007898	0.074865	0.000000	0.000000	0.000000	0.000000	0.000000	0.000000	0.000000	0.000000	0.000000
0.657500	190.383178	658.239083	2.073933	1.419097	0.000000	0.649552	-0.035411	0.007820	0.073987	0.000000	0.000000	0.000000	0.000000	0.000000	0.000000	0.000000	0.000000	0.000000
0.658000	189.039512	649.028086	2.116617	1.419455	0.000000	0.649593	-0.034943	0.007742	0.073108	0.000000	0.000000	0.000000	0.000000	0.000000	0.000000	0.000000	0.000000	0.000000
0.658500	187.656606	639.828899	2.157227	1.419821	0.000000	0.649633	-0.034477	0.007664	0.072229	0.000000	0.000000	0.000000	0.000000	0.000000	0.000000	0.000000	0.000000	0.000000
0.659000	186.235534	630.643919	2.195860	1.420193	0.000000	0.649673	-0.034012	0.007585	0.071350	0.000000	0.000000	0.000000	0.000000	0.000000	0.000000	0.000000	0.000000	0.000000
0.659500	184.777419	621.475588	2.232610	1.420572	0.000000	0.649713	-0.033547	0.007506	0.070470	0.000000	0.000000	0.000000	0.000000	0.000000	0.000000	0.000000	0.000000	0.000000
0.660000	183.283435	612.326380	2.267574	1.420958	0.000000	0.649752	-0.033084	0.007428	0.069589	0.000000	0.000000	0.000000	0.000000	0.000000	0.000000	0.000000	0.000000	0.000000
0.660500	181.754797	603.198805	2.300844	1.421351	0.000000	0.649790	-0.032621	0.007349	0.068710	0.000000	0.000000	0.000000	0.000000	0.000000	0.000000	0.000000	0.000000	0.000000
0.661000	180.192765	594.095399	2.332513	1.421751	0.000000	0.649828	-0.032160	0.007270	0.067830	0.000000	0.000000	0.000000	0.000000	0.000000	0.000000	0.000000	0.000000	0.000000
0.661500	178.598638	585.018728	2.362673	1.422158	0.000000	0.649864	-0.031701	0.007191	0.066951	0.000000	0.000000	0.000000	0.000000	0.000000	0.000000	0.000000	0.000000	0.000000
